<svg id="Layer_1" data-name="Layer 1" xmlns="http://www.w3.org/2000/svg" viewBox="0 0 424.65 92.22"><defs><style>.cls-1{fill:#f15a29;}</style></defs><path class="cls-1" d="M298.65,49.82a7.84,7.84,0,0,0-3.1-.56h-5.71v9.21h5.54a7.43,7.43,0,0,0,4.47-1.12A3.87,3.87,0,0,0,301.34,54a4.61,4.61,0,0,0-.7-2.6A4.32,4.32,0,0,0,298.65,49.82Z"/><path class="cls-1" d="M93,35.4a8.48,8.48,0,0,0-13,4.09,18.56,18.56,0,0,0-1,6.62,18.5,18.5,0,0,0,1,6.61,8.51,8.51,0,0,0,3,4.09,9.47,9.47,0,0,0,9.91,0,8.5,8.5,0,0,0,3-4.09,18.49,18.49,0,0,0,1-6.61,18.54,18.54,0,0,0-1-6.62A8.54,8.54,0,0,0,93,35.4Z"/><path class="cls-1" d="M140.7,35.4a8.46,8.46,0,0,0-12.95,4.09,18.54,18.54,0,0,0-1,6.62,18.49,18.49,0,0,0,1,6.61,7.95,7.95,0,0,0,8,5.49,8.4,8.4,0,0,0,4.95-1.4,8.51,8.51,0,0,0,3.05-4.09,18.5,18.5,0,0,0,1-6.61,18.56,18.56,0,0,0-1-6.62A8.56,8.56,0,0,0,140.7,35.4Z"/><path class="cls-1" d="M297.44,41.44A4.16,4.16,0,0,0,299.31,40a3.71,3.71,0,0,0,.67-2.26,3.61,3.61,0,0,0-1.45-3.1,6,6,0,0,0-3.66-1.08h-5v8.35h4.85A7.1,7.1,0,0,0,297.44,41.44Z"/><path class="cls-1" d="M344.05,35.4a8.46,8.46,0,0,0-12.95,4.09,18.54,18.54,0,0,0-1,6.62,18.49,18.49,0,0,0,1,6.61,7.95,7.95,0,0,0,8,5.49,8.4,8.4,0,0,0,4.95-1.4,8.51,8.51,0,0,0,3.05-4.09,18.5,18.5,0,0,0,1-6.61,18.56,18.56,0,0,0-1-6.62A8.56,8.56,0,0,0,344.05,35.4Z"/><path class="cls-1" d="M184.21,35.39a14.12,14.12,0,0,0-5.76-1h-4.18V57.87h4.52a13.38,13.38,0,0,0,5.53-1,7.11,7.11,0,0,0,3.49-3.61A17,17,0,0,0,189,46.11,16.77,16.77,0,0,0,187.79,39,7.17,7.17,0,0,0,184.21,35.39Z"/><path class="cls-1" d="M.5.5V91.72H424.15V.5ZM58.85,57.82a18.17,18.17,0,0,1-7.54,7.5,24.08,24.08,0,0,1-11.53,2.61H23V24.29H39.61A24.52,24.52,0,0,1,51.26,26.9a18.21,18.21,0,0,1,7.58,7.5,24,24,0,0,1,2.68,11.71A24.12,24.12,0,0,1,58.85,57.82Zm47.56.57A19,19,0,0,1,98.76,66a23.75,23.75,0,0,1-21.51,0,19.05,19.05,0,0,1-7.63-7.58A24.57,24.57,0,0,1,66.8,46.11a24.71,24.71,0,0,1,2.82-12.29,18.94,18.94,0,0,1,7.63-7.56,23.79,23.79,0,0,1,21.51,0,18.92,18.92,0,0,1,7.65,7.56,24.6,24.6,0,0,1,2.83,12.29A24.54,24.54,0,0,1,106.41,58.39Zm47.73,0A19,19,0,0,1,146.49,66a23.75,23.75,0,0,1-21.51,0,18.93,18.93,0,0,1-7.63-7.58,24.57,24.57,0,0,1-2.82-12.24,24.71,24.71,0,0,1,2.82-12.29A18.82,18.82,0,0,1,125,26.26a23.79,23.79,0,0,1,21.51,0,18.92,18.92,0,0,1,7.65,7.56A24.6,24.6,0,0,1,157,46.11,24.54,24.54,0,0,1,154.14,58.39Zm44.14-.57a18.17,18.17,0,0,1-7.54,7.5,24.08,24.08,0,0,1-11.53,2.61H162.42V24.29H179a24.52,24.52,0,0,1,11.65,2.61,18.21,18.21,0,0,1,7.58,7.5A24,24,0,0,1,201,46.11,24.12,24.12,0,0,1,198.28,57.82Zm37.61,10.11H206.4V24.29h11.85V58.38h17.64Zm36.22-34.09h-19.6v7.5h18v9.54h-18v7.5H272v9.55H240.66V24.29h31.45ZM312,61.94a12.64,12.64,0,0,1-5.3,4.39,19.28,19.28,0,0,1-8.18,1.6H278V24.29h18.92a23.09,23.09,0,0,1,8.39,1.34,11.13,11.13,0,0,1,5.13,3.79,9.74,9.74,0,0,1,1.74,5.78,9.21,9.21,0,0,1-4,7.7,11.52,11.52,0,0,1-4.43,1.84v.43a10.92,10.92,0,0,1,5.11,1.42,9.83,9.83,0,0,1,3.67,3.6,10.32,10.32,0,0,1,1.36,5.38A11.23,11.23,0,0,1,312,61.94Zm45.47-3.55A18.93,18.93,0,0,1,349.84,66a23.75,23.75,0,0,1-21.51,0,18.93,18.93,0,0,1-7.63-7.58,24.57,24.57,0,0,1-2.82-12.24,24.71,24.71,0,0,1,2.82-12.29,18.82,18.82,0,0,1,7.63-7.56,23.79,23.79,0,0,1,21.51,0,18.84,18.84,0,0,1,7.64,7.56,24.6,24.6,0,0,1,2.84,12.29A24.54,24.54,0,0,1,357.48,58.39Zm42.31,3.55a12.58,12.58,0,0,1-5.3,4.39,19.28,19.28,0,0,1-8.18,1.6H365.77V24.29h18.92a23.05,23.05,0,0,1,8.39,1.34,11.13,11.13,0,0,1,5.13,3.79A9.74,9.74,0,0,1,400,35.2a9.13,9.13,0,0,1-1.06,4.39,9.34,9.34,0,0,1-2.95,3.31,11.52,11.52,0,0,1-4.43,1.84v.43a11,11,0,0,1,5.12,1.42,9.87,9.87,0,0,1,3.66,3.6,10.32,10.32,0,0,1,1.36,5.38A11.23,11.23,0,0,1,399.79,61.94Z"/><path class="cls-1" d="M44.78,35.39a14.12,14.12,0,0,0-5.76-1H34.84V57.87h4.52a13.38,13.38,0,0,0,5.53-1,7.11,7.11,0,0,0,3.49-3.61,17,17,0,0,0,1.21-7.11A16.77,16.77,0,0,0,48.36,39,7.17,7.17,0,0,0,44.78,35.39Z"/><path class="cls-1" d="M385.23,41.44A4.18,4.18,0,0,0,387.09,40a3.71,3.71,0,0,0,.67-2.26,3.61,3.61,0,0,0-1.45-3.1,5.93,5.93,0,0,0-3.66-1.08h-5v8.35h4.86A7.18,7.18,0,0,0,385.23,41.44Z"/><path class="cls-1" d="M386.43,49.82a7.81,7.81,0,0,0-3.1-.56h-5.71v9.21h5.54a7.43,7.43,0,0,0,4.47-1.12,3.88,3.88,0,0,0,1.5-3.32,4.62,4.62,0,0,0-.71-2.6A4.32,4.32,0,0,0,386.43,49.82Z"/></svg>