<svg id="Layer_1" data-name="Layer 1" xmlns="http://www.w3.org/2000/svg" viewBox="0 0 483.52 81.25"><defs><style>.cls-1{fill:#f15a29;}</style></defs><polygon class="cls-1" points="279.11 33.41 275.9 44.01 282.56 44.01 279.36 33.41 279.11 33.41"/><polygon class="cls-1" points="84.2 33.41 81 44.01 87.65 44.01 84.45 33.41 84.2 33.41"/><path class="cls-1" d="M0,0V81.25H483.52V0ZM64.68,56.7H56.14V38.11h-.25L48.73,56.44H43.59L36.43,38h-.25V56.7H27.64V24.55H38.5L46,42.76h.38l7.47-18.21H64.68Zm26.8,0-1.85-6.16H79L77.17,56.7H67.75L78.36,24.55H90.29L100.9,56.7Zm20.63-11.14a6.22,6.22,0,0,0,2.3,3,6.39,6.39,0,0,0,3.63,1,6.91,6.91,0,0,0,2.16-.31,5,5,0,0,0,1.67-.88A4.78,4.78,0,0,0,123,46.94a5.5,5.5,0,0,0,.6-1.86l8.86.06a12.1,12.1,0,0,1-1.15,4.16,13.43,13.43,0,0,1-7.28,6.75,17.85,17.85,0,0,1-14.13-.82,13.68,13.68,0,0,1-5.55-5.58,18.54,18.54,0,0,1-2-9,18.2,18.2,0,0,1,2.07-9A13.93,13.93,0,0,1,110,26a16.19,16.19,0,0,1,7.85-1.9,17.83,17.83,0,0,1,5.6.84,13.5,13.5,0,0,1,4.49,2.42,12.12,12.12,0,0,1,3.11,3.92,14.44,14.44,0,0,1,1.43,5.32h-8.86a6,6,0,0,0-.49-2,4.72,4.72,0,0,0-2.79-2.55,6.71,6.71,0,0,0-2.24-.35,6.3,6.3,0,0,0-3.71,1.07,6.44,6.44,0,0,0-2.29,3.06,13.12,13.12,0,0,0-.78,4.78A13.35,13.35,0,0,0,112.11,45.56ZM165.43,56.7h-8.72V44.14H145.16V56.7h-8.73V24.55h8.73V37.11h11.55V24.55h8.72Zm12.87,0h-8.72V24.55h8.72Zm32,0H203L191.36,39.81h-.19V56.7h-8.72V24.55h7.4l11.43,16.83h.25V24.55h8.73Zm27.3-25.12H223.12v5.53h13.25v7H223.12v5.52H237.5v7H214.4V24.55h23.16ZM286.39,56.7l-1.86-6.16h-10.6l-1.85,6.16h-9.42l10.61-32.15H285.2L295.81,56.7Zm41.05-13.5a14.4,14.4,0,0,1-1.86,7.51,12.31,12.31,0,0,1-5.11,4.77A16.3,16.3,0,0,1,313,57.13a16.5,16.5,0,0,1-8.23-2,14,14,0,0,1-5.54-5.68,18.29,18.29,0,0,1-2-8.77,19.15,19.15,0,0,1,1.21-7.07,14.75,14.75,0,0,1,3.39-5.2,14.44,14.44,0,0,1,5-3.21,17.59,17.59,0,0,1,11.4-.29,14.32,14.32,0,0,1,4.35,2.29,12,12,0,0,1,3,3.51,11.09,11.09,0,0,1,1.42,4.44h-8.82a4.31,4.31,0,0,0-.65-1.46,4,4,0,0,0-1.09-1.09,4.67,4.67,0,0,0-1.5-.67,7.39,7.39,0,0,0-1.88-.23,6.18,6.18,0,0,0-6.1,4.08,12.59,12.59,0,0,0-.81,4.77,13.52,13.52,0,0,0,.77,4.83,6.05,6.05,0,0,0,6.08,4.15,8.27,8.27,0,0,0,3.32-.58,4.29,4.29,0,0,0,2-1.65A4.54,4.54,0,0,0,319,45h-5.83V38.74h14.25Zm27.25-11.62H340.25v5.53h13.24v7H340.25v5.52h14.38v7H331.52V24.55h23.17ZM386.83,56.7h-7.28L367.93,39.81h-.19V56.7H359V24.55h7.41l11.42,16.83h.25V24.55h8.73Zm13.79-11.14a6.15,6.15,0,0,0,2.29,3,6.41,6.41,0,0,0,3.63,1,6.93,6.93,0,0,0,2.17-.31,5,5,0,0,0,1.66-.88,4.63,4.63,0,0,0,1.15-1.41,5.74,5.74,0,0,0,.61-1.86l8.85.06a12.1,12.1,0,0,1-1.15,4.16,13.43,13.43,0,0,1-7.28,6.75,17.85,17.85,0,0,1-14.13-.82,13.6,13.6,0,0,1-5.54-5.58,18.43,18.43,0,0,1-2-9,18.2,18.2,0,0,1,2.07-9A13.81,13.81,0,0,1,398.51,26a16.15,16.15,0,0,1,7.84-1.9A17.83,17.83,0,0,1,412,25a13.4,13.4,0,0,1,4.49,2.42,12,12,0,0,1,3.11,3.92A14.25,14.25,0,0,1,421,36.61h-8.85a6.25,6.25,0,0,0-.5-2,4.69,4.69,0,0,0-1.09-1.54,4.85,4.85,0,0,0-1.69-1,6.81,6.81,0,0,0-2.25-.35,6.3,6.3,0,0,0-3.71,1.07,6.51,6.51,0,0,0-2.29,3.06,13.12,13.12,0,0,0-.78,4.78A13.34,13.34,0,0,0,400.62,45.56Zm43.46,1V56.7h-8.66V46.59l-11.8-22h9.73l6.27,13.06h.25l6.28-13.06h9.73Z"/></svg>