<svg id="Layer_1" data-name="Layer 1" xmlns="http://www.w3.org/2000/svg" viewBox="0 0 283.46 283.46"><defs><style>.cls-1{fill:#f15a29;}</style></defs><polygon class="cls-1" points="76.77 41.13 74.37 49.05 79.34 49.05 76.95 41.13 76.77 41.13"/><polygon class="cls-1" points="46.01 80.74 43.61 88.66 48.59 88.66 46.19 80.74 46.01 80.74"/><path class="cls-1" d="M0,0V283.46H283.46V0ZM150.15,34.51h5.53l8.53,12.57h.19V34.51h6.52v24h-5.44L156.8,45.91h-.14V58.52h-6.51Zm-9.62,0h6.52v24h-6.52Zm-24.75,0h6.51v9.38h8.63V34.51h6.52v24h-6.52V49.14h-8.63v9.38h-6.51ZM91.86,39.76A10.39,10.39,0,0,1,96,35.6a12.17,12.17,0,0,1,5.86-1.41,13.28,13.28,0,0,1,4.18.62,10,10,0,0,1,3.35,1.81,9,9,0,0,1,2.33,2.92,10.71,10.71,0,0,1,1.06,4h-6.61a4.59,4.59,0,0,0-.37-1.49,3.54,3.54,0,0,0-.82-1.16,3.77,3.77,0,0,0-1.26-.75,5.11,5.11,0,0,0-1.68-.26,4.72,4.72,0,0,0-2.77.8,4.9,4.9,0,0,0-1.71,2.28A9.8,9.8,0,0,0,97,46.52a10,10,0,0,0,.59,3.68,4.64,4.64,0,0,0,1.72,2.23,4.77,4.77,0,0,0,2.71.75,5.42,5.42,0,0,0,1.62-.23,3.71,3.71,0,0,0,1.24-.67,3.35,3.35,0,0,0,.86-1,4.37,4.37,0,0,0,.45-1.39l6.61,0A9,9,0,0,1,112,53a10.11,10.11,0,0,1-5.44,5A13.32,13.32,0,0,1,96,57.43a10.32,10.32,0,0,1-4.14-4.17,13.82,13.82,0,0,1-1.51-6.74A13.6,13.6,0,0,1,91.86,39.76ZM34.52,34.51h8.11l5.58,13.6h.28l5.58-13.6h8.11v24H55.81V44.64h-.19L50.27,58.33H46.43L41.08,44.55H40.9v14H34.52ZM51.44,98.13l-1.38-4.59H42.14l-1.39,4.59h-7l7.92-24h8.91l7.93,24ZM82.11,88.05a10.71,10.71,0,0,1-1.39,5.61,9.26,9.26,0,0,1-3.82,3.57A13.36,13.36,0,0,1,65.17,97,10.42,10.42,0,0,1,61,92.73a13.62,13.62,0,0,1-1.48-6.55,14.18,14.18,0,0,1,.91-5.28A10.86,10.86,0,0,1,63,77a11,11,0,0,1,3.74-2.41,13.3,13.3,0,0,1,8.52-.21,10.45,10.45,0,0,1,3.24,1.71,8.75,8.75,0,0,1,2.28,2.62,8.41,8.41,0,0,1,1.06,3.32H75.24a3.31,3.31,0,0,0-.48-1.1,3.24,3.24,0,0,0-.81-.8,3.43,3.43,0,0,0-1.13-.51,5.59,5.59,0,0,0-1.4-.17,4.61,4.61,0,0,0-4.55,3,9.23,9.23,0,0,0-.61,3.56,9.94,9.94,0,0,0,.58,3.61,4.51,4.51,0,0,0,4.53,3.1,6.19,6.19,0,0,0,2.48-.44,3.09,3.09,0,0,0,1.48-1.23,3.47,3.47,0,0,0,.49-1.75H71.47V84.72H82.11ZM80.82,53.93H72.9l-1.39,4.59h-7l7.92-24h8.91l7.93,24h-7Zm21.64,25.45H91.67V83.5h9.9v5.26h-9.9v4.12h10.74v5.25H85.16v-24h17.3Zm24,18.75H121l-8.68-12.61h-.14V98.13h-6.52v-24h5.54l8.53,12.56H120V74.13h6.52Zm10.3-8.31A4.58,4.58,0,0,0,138.48,92a4.79,4.79,0,0,0,2.71.75,5.42,5.42,0,0,0,1.62-.23,3.59,3.59,0,0,0,1.24-.66,3.51,3.51,0,0,0,.86-1.05,4.13,4.13,0,0,0,.45-1.39l6.62.05a9,9,0,0,1-.86,3.1,9.94,9.94,0,0,1-2.09,2.9,10.2,10.2,0,0,1-3.35,2.14A13.32,13.32,0,0,1,135.12,97,10.18,10.18,0,0,1,131,92.87a13.71,13.71,0,0,1-1.52-6.74A13.52,13.52,0,0,1,131,79.37a10.37,10.37,0,0,1,4.17-4.16,12.17,12.17,0,0,1,5.86-1.41,13.24,13.24,0,0,1,4.18.62,10.07,10.07,0,0,1,3.36,1.81,9.05,9.05,0,0,1,2.32,2.93,10.86,10.86,0,0,1,1.07,4h-6.62a4.35,4.35,0,0,0-.37-1.49,3.27,3.27,0,0,0-.82-1.15,3.31,3.31,0,0,0-1.26-.75,4.84,4.84,0,0,0-1.67-.27,4.73,4.73,0,0,0-2.78.8,4.9,4.9,0,0,0-1.71,2.28,10.06,10.06,0,0,0-.58,3.58A9.9,9.9,0,0,0,136.77,89.82Zm32.46.76v7.55h-6.47V90.58l-8.82-16.45h7.27l4.69,9.75h.19l4.69-9.75h7.27Zm22.09-50.81H180.53v4.12h9.89v5.25h-9.89v4.13h10.74v5.25H174v-24h17.31Z"/></svg>