<svg id="Layer_1" data-name="Layer 1" xmlns="http://www.w3.org/2000/svg" viewBox="0 0 198.5 99.08"><defs><style>.cls-1{fill:#f15a29;}</style></defs><polygon class="cls-1" points="32.74 63.96 30.34 71.88 35.31 71.88 32.92 63.96 32.74 63.96"/><polygon class="cls-1" points="63.49 24.34 61.1 32.27 66.07 32.27 63.68 24.34 63.49 24.34"/><path class="cls-1" d="M0,0V99.08H198.5V0ZM136.88,17.73h5.53l8.53,12.57h.19V17.73h6.52v24h-5.44l-8.68-12.61h-.14V41.74h-6.51Zm-9.62,0h6.52v24h-6.52Zm-24.75,0H109v9.38h8.63V17.73h6.52v24h-6.52V32.36H109v9.38h-6.51ZM78.59,23a10.39,10.39,0,0,1,4.18-4.16,12.07,12.07,0,0,1,5.86-1.42,13.28,13.28,0,0,1,4.18.63,9.85,9.85,0,0,1,3.35,1.81,8.91,8.91,0,0,1,2.33,2.92,10.71,10.71,0,0,1,1.06,4H92.94a4.6,4.6,0,0,0-.37-1.48,3.54,3.54,0,0,0-.82-1.16,3.77,3.77,0,0,0-1.26-.75,5.11,5.11,0,0,0-1.68-.26,4.71,4.71,0,0,0-2.77.79,5,5,0,0,0-1.71,2.29,9.8,9.8,0,0,0-.58,3.58,10.1,10.1,0,0,0,.59,3.68,4.69,4.69,0,0,0,1.72,2.23,4.76,4.76,0,0,0,2.71.74,5.43,5.43,0,0,0,1.62-.22,3.89,3.89,0,0,0,1.24-.67,3.51,3.51,0,0,0,.86-1,4.31,4.31,0,0,0,.45-1.38l6.61,0a9,9,0,0,1-.85,3.1,10.15,10.15,0,0,1-2.1,2.91,10,10,0,0,1-3.34,2.14,13.32,13.32,0,0,1-10.56-.61,10.39,10.39,0,0,1-4.14-4.17,13.85,13.85,0,0,1-1.51-6.74A13.6,13.6,0,0,1,78.59,23ZM21.25,17.73h8.11l5.58,13.6h.28l5.58-13.6h8.11v24H42.54V27.86h-.19L37,41.55H33.16L27.81,27.77h-.18v14H21.25ZM38.17,81.35l-1.38-4.59H28.87l-1.39,4.59h-7l7.92-24h8.91l7.93,24ZM68.84,71.27a10.71,10.71,0,0,1-1.39,5.61,9.18,9.18,0,0,1-3.82,3.56,12.05,12.05,0,0,1-5.57,1.24,12.4,12.4,0,0,1-6.16-1.49A10.48,10.48,0,0,1,47.77,76a13.64,13.64,0,0,1-1.48-6.56,14.16,14.16,0,0,1,.91-5.27,10.75,10.75,0,0,1,6.26-6.29A13.3,13.3,0,0,1,62,57.62a10.45,10.45,0,0,1,3.24,1.71A8.75,8.75,0,0,1,67.5,62a8.36,8.36,0,0,1,1.06,3.32H62a3.23,3.23,0,0,0-.48-1.1,3.46,3.46,0,0,0-.81-.81,3.63,3.63,0,0,0-1.13-.5,5.59,5.59,0,0,0-1.4-.17,4.57,4.57,0,0,0-4.55,3A9.23,9.23,0,0,0,53,69.3a9.94,9.94,0,0,0,.58,3.61A4.51,4.51,0,0,0,58.1,76a6.15,6.15,0,0,0,2.48-.44,3.14,3.14,0,0,0,1.48-1.23,3.48,3.48,0,0,0,.49-1.76H58.2V67.94H68.84ZM67.55,37.14H59.63l-1.39,4.6h-7l7.92-24H68l7.93,24h-7ZM89.19,62.6H78.4v4.12h9.9V72H78.4V76.1H89.14v5.25H71.89v-24h17.3Zm24,18.75h-5.44L99.08,68.74h-.14V81.35H92.42v-24H98l8.53,12.57h.19V57.34h6.52ZM123.5,73a4.56,4.56,0,0,0,1.71,2.23,4.79,4.79,0,0,0,2.71.75,5.42,5.42,0,0,0,1.62-.23,3.61,3.61,0,0,0,1.24-.67,3.35,3.35,0,0,0,.86-1,3.92,3.92,0,0,0,.45-1.39l6.62,0a9,9,0,0,1-.86,3.1,10,10,0,0,1-2.09,2.91,10.2,10.2,0,0,1-3.35,2.14,13.32,13.32,0,0,1-10.56-.61,10.24,10.24,0,0,1-4.13-4.17,13.71,13.71,0,0,1-1.52-6.74,13.49,13.49,0,0,1,1.55-6.76,10.37,10.37,0,0,1,4.17-4.16A12.17,12.17,0,0,1,127.78,57a13.24,13.24,0,0,1,4.18.62,10.07,10.07,0,0,1,3.36,1.81,9.12,9.12,0,0,1,2.32,2.92,10.72,10.72,0,0,1,1.07,4h-6.62a4.35,4.35,0,0,0-.37-1.49,3.4,3.4,0,0,0-.82-1.16,3.58,3.58,0,0,0-1.26-.75,5.09,5.09,0,0,0-1.67-.26,4.73,4.73,0,0,0-2.78.8,4.9,4.9,0,0,0-1.71,2.28,10,10,0,0,0-.58,3.58A9.8,9.8,0,0,0,123.5,73ZM156,73.8v7.55h-6.47V73.8l-8.82-16.46h7.27l4.69,9.76h.19l4.69-9.76h7.27ZM178.05,23H167.26v4.13h9.89v5.25h-9.89v4.13H178v5.25H160.74v-24h17.31Z"/></svg>